<mxfile host="app.diagrams.net" agent="Mozilla/5.0 (X11; Linux x86_64; rv:134.0) Gecko/20100101 Firefox/134.0" version="26.0.6">
  <diagram name="Page-1" id="Srwmvj1BYV8iuDla-JvW">
    <mxGraphModel dx="880" dy="486" grid="0" gridSize="5" guides="1" tooltips="1" connect="1" arrows="1" fold="1" page="1" pageScale="1" pageWidth="850" pageHeight="1100" math="0" shadow="0">
      <root>
        <mxCell id="0" />
        <mxCell id="1" parent="0" />
        <mxCell id="u3hwHGO52IV3qaRbZjv1-1" value="1" style="rounded=1;whiteSpace=wrap;html=1;strokeWidth=2;fillWeight=4;hachureGap=8;hachureAngle=45;fillColor=#f5f5f5;sketch=1;imageWidth=12;imageHeight=12;strokeColor=#666666;fontColor=light-dark(#888a85, #c1c1c1);fontSize=18;fontFamily=Verdana;" vertex="1" parent="1">
          <mxGeometry x="20" y="20" width="80" height="40" as="geometry" />
        </mxCell>
        <mxCell id="u3hwHGO52IV3qaRbZjv1-2" value="2" style="rounded=1;whiteSpace=wrap;html=1;strokeWidth=2;fillWeight=4;hachureGap=8;hachureAngle=45;fillColor=#f5f5f5;sketch=1;imageWidth=12;imageHeight=12;strokeColor=#666666;fontColor=light-dark(#888a85, #c1c1c1);fontFamily=Verdana;fontSize=18;" vertex="1" parent="1">
          <mxGeometry x="120" y="20" width="80" height="40" as="geometry" />
        </mxCell>
        <mxCell id="u3hwHGO52IV3qaRbZjv1-3" value="3" style="rounded=1;whiteSpace=wrap;html=1;strokeWidth=2;fillWeight=4;hachureGap=8;hachureAngle=45;fillColor=#f5f5f5;sketch=1;imageWidth=12;imageHeight=12;strokeColor=#666666;fontColor=light-dark(#888a85, #c1c1c1);fontFamily=Verdana;fontSize=18;" vertex="1" parent="1">
          <mxGeometry x="220" y="20" width="80" height="40" as="geometry" />
        </mxCell>
        <mxCell id="u3hwHGO52IV3qaRbZjv1-5" value="7" style="rounded=1;whiteSpace=wrap;html=1;strokeWidth=2;fillWeight=4;hachureGap=8;hachureAngle=45;fillColor=#f5f5f5;sketch=1;imageWidth=12;imageHeight=12;strokeColor=#666666;fontColor=light-dark(#888a85, #c1c1c1);fontFamily=Verdana;fontSize=18;" vertex="1" parent="1">
          <mxGeometry x="620" y="20" width="80" height="40" as="geometry" />
        </mxCell>
        <mxCell id="u3hwHGO52IV3qaRbZjv1-6" value="6" style="rounded=1;whiteSpace=wrap;html=1;strokeWidth=2;fillWeight=4;hachureGap=8;hachureAngle=45;fillColor=#f5f5f5;sketch=1;imageWidth=12;imageHeight=12;strokeColor=#666666;fontColor=light-dark(#888a85, #c1c1c1);fontFamily=Verdana;fontSize=18;" vertex="1" parent="1">
          <mxGeometry x="520" y="20" width="80" height="40" as="geometry" />
        </mxCell>
        <mxCell id="u3hwHGO52IV3qaRbZjv1-7" value="5" style="rounded=1;whiteSpace=wrap;html=1;strokeWidth=2;fillWeight=4;hachureGap=8;hachureAngle=45;fillColor=#f5f5f5;sketch=1;imageWidth=12;imageHeight=12;strokeColor=#666666;fontColor=light-dark(#888a85, #c1c1c1);fontFamily=Verdana;fontSize=18;" vertex="1" parent="1">
          <mxGeometry x="420" y="20" width="80" height="40" as="geometry" />
        </mxCell>
        <mxCell id="u3hwHGO52IV3qaRbZjv1-8" value="4" style="rounded=1;whiteSpace=wrap;html=1;strokeWidth=2;fillWeight=4;hachureGap=8;hachureAngle=45;fillColor=#f5f5f5;sketch=1;imageWidth=12;imageHeight=12;strokeColor=#666666;fontColor=light-dark(#888a85, #c1c1c1);fontFamily=Verdana;fontSize=18;" vertex="1" parent="1">
          <mxGeometry x="320" y="20" width="80" height="40" as="geometry" />
        </mxCell>
        <mxCell id="u3hwHGO52IV3qaRbZjv1-9" value="8" style="rounded=1;whiteSpace=wrap;html=1;strokeWidth=2;fillWeight=4;hachureGap=8;hachureAngle=45;fillColor=#f5f5f5;sketch=1;imageWidth=12;imageHeight=12;strokeColor=#666666;fontColor=light-dark(#888a85, #c1c1c1);fontFamily=Verdana;fontSize=18;" vertex="1" parent="1">
          <mxGeometry x="720" y="20" width="80" height="40" as="geometry" />
        </mxCell>
        <mxCell id="u3hwHGO52IV3qaRbZjv1-10" value="" style="endArrow=none;dashed=1;html=1;dashPattern=1 2;strokeWidth=2;rounded=0;entryX=0;entryY=1;entryDx=0;entryDy=0;strokeColor=light-dark(#888a85, #ededed);exitX=0;exitY=0;exitDx=0;exitDy=0;exitPerimeter=0;" edge="1" parent="1" source="u3hwHGO52IV3qaRbZjv1-15" target="u3hwHGO52IV3qaRbZjv1-1">
          <mxGeometry width="50" height="50" relative="1" as="geometry">
            <mxPoint x="20" y="100" as="sourcePoint" />
            <mxPoint x="125" y="80" as="targetPoint" />
          </mxGeometry>
        </mxCell>
        <mxCell id="u3hwHGO52IV3qaRbZjv1-15" value="" style="shape=crossbar;whiteSpace=wrap;html=1;rounded=1;fontColor=light-dark(#888a85, #ededed);strokeColor=light-dark(#888a85, #ededed);" vertex="1" parent="1">
          <mxGeometry x="20" y="92" width="380" height="20" as="geometry" />
        </mxCell>
        <mxCell id="u3hwHGO52IV3qaRbZjv1-16" value="" style="shape=crossbar;whiteSpace=wrap;html=1;rounded=1;strokeColor=light-dark(#888a85, #ededed);" vertex="1" parent="1">
          <mxGeometry x="120" y="112" width="380" height="20" as="geometry" />
        </mxCell>
        <mxCell id="u3hwHGO52IV3qaRbZjv1-17" value="" style="shape=crossbar;whiteSpace=wrap;html=1;rounded=1;strokeColor=light-dark(#888a85, #ededed);" vertex="1" parent="1">
          <mxGeometry x="220" y="132" width="380" height="20" as="geometry" />
        </mxCell>
        <mxCell id="u3hwHGO52IV3qaRbZjv1-18" value="" style="shape=crossbar;whiteSpace=wrap;html=1;rounded=1;strokeColor=light-dark(#888a85, #ededed);" vertex="1" parent="1">
          <mxGeometry x="320" y="152" width="380" height="20" as="geometry" />
        </mxCell>
        <mxCell id="u3hwHGO52IV3qaRbZjv1-19" value="" style="shape=crossbar;whiteSpace=wrap;html=1;rounded=1;strokeColor=light-dark(#888a85, #ededed);" vertex="1" parent="1">
          <mxGeometry x="420" y="172" width="380" height="20" as="geometry" />
        </mxCell>
        <mxCell id="u3hwHGO52IV3qaRbZjv1-20" value="" style="endArrow=none;dashed=1;html=1;dashPattern=1 2;strokeWidth=2;rounded=0;entryX=0;entryY=1;entryDx=0;entryDy=0;strokeColor=light-dark(#888a85, #ededed);" edge="1" parent="1" target="u3hwHGO52IV3qaRbZjv1-2">
          <mxGeometry width="50" height="50" relative="1" as="geometry">
            <mxPoint x="120" y="115" as="sourcePoint" />
            <mxPoint x="25" y="65" as="targetPoint" />
          </mxGeometry>
        </mxCell>
        <mxCell id="u3hwHGO52IV3qaRbZjv1-21" value="" style="endArrow=none;dashed=1;html=1;dashPattern=1 2;strokeWidth=2;rounded=0;entryX=0;entryY=1;entryDx=0;entryDy=0;strokeColor=light-dark(#888a85, #ededed);" edge="1" parent="1" target="u3hwHGO52IV3qaRbZjv1-3">
          <mxGeometry width="50" height="50" relative="1" as="geometry">
            <mxPoint x="220" y="135" as="sourcePoint" />
            <mxPoint x="125" y="65" as="targetPoint" />
          </mxGeometry>
        </mxCell>
        <mxCell id="u3hwHGO52IV3qaRbZjv1-22" value="" style="endArrow=none;dashed=1;html=1;dashPattern=1 2;strokeWidth=2;rounded=0;entryX=0;entryY=1;entryDx=0;entryDy=0;strokeColor=light-dark(#888a85, #ededed);exitX=0;exitY=0;exitDx=0;exitDy=0;exitPerimeter=0;" edge="1" parent="1" source="u3hwHGO52IV3qaRbZjv1-18" target="u3hwHGO52IV3qaRbZjv1-8">
          <mxGeometry width="50" height="50" relative="1" as="geometry">
            <mxPoint x="225" y="140" as="sourcePoint" />
            <mxPoint x="225" y="65" as="targetPoint" />
          </mxGeometry>
        </mxCell>
        <mxCell id="u3hwHGO52IV3qaRbZjv1-23" value="" style="endArrow=none;dashed=1;html=1;dashPattern=1 2;strokeWidth=2;rounded=0;entryX=0;entryY=1;entryDx=0;entryDy=0;strokeColor=light-dark(#888a85, #ededed);exitX=0;exitY=0;exitDx=0;exitDy=0;exitPerimeter=0;" edge="1" parent="1" source="u3hwHGO52IV3qaRbZjv1-19" target="u3hwHGO52IV3qaRbZjv1-7">
          <mxGeometry width="50" height="50" relative="1" as="geometry">
            <mxPoint x="325" y="157" as="sourcePoint" />
            <mxPoint x="325" y="65" as="targetPoint" />
          </mxGeometry>
        </mxCell>
        <mxCell id="u3hwHGO52IV3qaRbZjv1-24" value="" style="endArrow=none;dashed=1;html=1;dashPattern=1 2;strokeWidth=2;rounded=0;entryX=1;entryY=1;entryDx=0;entryDy=0;strokeColor=light-dark(#888a85, #ededed);exitX=1;exitY=0;exitDx=0;exitDy=0;exitPerimeter=0;" edge="1" parent="1" source="u3hwHGO52IV3qaRbZjv1-15" target="u3hwHGO52IV3qaRbZjv1-8">
          <mxGeometry width="50" height="50" relative="1" as="geometry">
            <mxPoint x="425" y="177" as="sourcePoint" />
            <mxPoint x="425" y="65" as="targetPoint" />
          </mxGeometry>
        </mxCell>
        <mxCell id="u3hwHGO52IV3qaRbZjv1-25" value="" style="endArrow=none;dashed=1;html=1;dashPattern=1 2;strokeWidth=2;rounded=0;entryX=1;entryY=1;entryDx=0;entryDy=0;strokeColor=light-dark(#888a85, #ededed);exitX=1;exitY=0;exitDx=0;exitDy=0;exitPerimeter=0;" edge="1" parent="1" source="u3hwHGO52IV3qaRbZjv1-16" target="u3hwHGO52IV3qaRbZjv1-7">
          <mxGeometry width="50" height="50" relative="1" as="geometry">
            <mxPoint x="430" y="182" as="sourcePoint" />
            <mxPoint x="430" y="70" as="targetPoint" />
          </mxGeometry>
        </mxCell>
        <mxCell id="u3hwHGO52IV3qaRbZjv1-26" value="" style="endArrow=none;dashed=1;html=1;dashPattern=1 2;strokeWidth=2;rounded=0;entryX=1;entryY=1;entryDx=0;entryDy=0;strokeColor=light-dark(#888a85, #ededed);exitX=1;exitY=0;exitDx=0;exitDy=0;exitPerimeter=0;" edge="1" parent="1" source="u3hwHGO52IV3qaRbZjv1-17" target="u3hwHGO52IV3qaRbZjv1-6">
          <mxGeometry width="50" height="50" relative="1" as="geometry">
            <mxPoint x="435" y="187" as="sourcePoint" />
            <mxPoint x="435" y="75" as="targetPoint" />
          </mxGeometry>
        </mxCell>
        <mxCell id="u3hwHGO52IV3qaRbZjv1-27" value="" style="endArrow=none;dashed=1;html=1;dashPattern=1 2;strokeWidth=2;rounded=0;entryX=1;entryY=1;entryDx=0;entryDy=0;strokeColor=light-dark(#888a85, #ededed);exitX=1;exitY=0;exitDx=0;exitDy=0;exitPerimeter=0;" edge="1" parent="1" source="u3hwHGO52IV3qaRbZjv1-18" target="u3hwHGO52IV3qaRbZjv1-5">
          <mxGeometry width="50" height="50" relative="1" as="geometry">
            <mxPoint x="440" y="192" as="sourcePoint" />
            <mxPoint x="440" y="80" as="targetPoint" />
          </mxGeometry>
        </mxCell>
        <mxCell id="u3hwHGO52IV3qaRbZjv1-28" value="" style="endArrow=none;dashed=1;html=1;dashPattern=1 2;strokeWidth=2;rounded=0;entryX=1;entryY=1;entryDx=0;entryDy=0;strokeColor=light-dark(#888a85, #ededed);exitX=1;exitY=0;exitDx=0;exitDy=0;exitPerimeter=0;" edge="1" parent="1" source="u3hwHGO52IV3qaRbZjv1-19" target="u3hwHGO52IV3qaRbZjv1-9">
          <mxGeometry width="50" height="50" relative="1" as="geometry">
            <mxPoint x="445" y="197" as="sourcePoint" />
            <mxPoint x="445" y="85" as="targetPoint" />
          </mxGeometry>
        </mxCell>
        <mxCell id="u3hwHGO52IV3qaRbZjv1-29" value="&amp;gt;=1" style="text;strokeColor=none;fillColor=none;html=1;fontSize=15;fontStyle=1;verticalAlign=middle;align=center;fontColor=light-dark(#888a85, #ededed);fontFamily=Verdana;" vertex="1" parent="1">
          <mxGeometry x="175" y="100" width="45" height="20" as="geometry" />
        </mxCell>
        <mxCell id="u3hwHGO52IV3qaRbZjv1-30" value="&amp;gt;=1" style="text;strokeColor=none;fillColor=none;html=1;fontSize=15;fontStyle=1;verticalAlign=middle;align=center;fontColor=light-dark(#888a85, #ededed);fontFamily=Verdana;" vertex="1" parent="1">
          <mxGeometry x="275" y="120" width="45" height="20" as="geometry" />
        </mxCell>
        <mxCell id="u3hwHGO52IV3qaRbZjv1-31" value="&amp;gt;=1" style="text;strokeColor=none;fillColor=none;html=1;fontSize=15;fontStyle=1;verticalAlign=middle;align=center;fontColor=light-dark(#888a85, #ededed);fontFamily=Verdana;" vertex="1" parent="1">
          <mxGeometry x="375" y="140" width="45" height="20" as="geometry" />
        </mxCell>
        <mxCell id="u3hwHGO52IV3qaRbZjv1-32" value="&amp;gt;=1" style="text;strokeColor=none;fillColor=none;html=1;fontSize=15;fontStyle=1;verticalAlign=middle;align=center;fontColor=light-dark(#888a85, #ededed);fontFamily=Verdana;" vertex="1" parent="1">
          <mxGeometry x="475" y="160" width="45" height="20" as="geometry" />
        </mxCell>
        <mxCell id="u3hwHGO52IV3qaRbZjv1-33" value="&amp;gt;=1" style="text;strokeColor=none;fillColor=none;html=1;fontSize=15;fontStyle=1;verticalAlign=middle;align=center;fontColor=light-dark(#888a85, #ededed);fontFamily=Verdana;" vertex="1" parent="1">
          <mxGeometry x="575" y="180" width="45" height="20" as="geometry" />
        </mxCell>
      </root>
    </mxGraphModel>
  </diagram>
</mxfile>
